<svg width="398" height="52" viewBox="0 0 398 52" fill="none" xmlns="http://www.w3.org/2000/svg">
<rect y="1.5" width="78" height="49" rx="24.5" fill="white"/>
<rect x="8" y="12" width="26" height="27" rx="13" fill="#0000FF"/>
<rect x="44" y="12" width="26" height="27" rx="13" fill="#0000FF"/>
<path d="M95.48 40V11.2H100.68V40H95.48ZM97.96 28.44V24.32H114.16V28.44H97.96ZM97.96 15.32V11.2H115.12V15.32H97.96ZM127.77 40.4C125.61 40.4 123.716 39.9467 122.09 39.04C120.49 38.1333 119.236 36.88 118.33 35.28C117.45 33.68 117.01 31.84 117.01 29.76C117.01 27.68 117.45 25.8533 118.33 24.28C119.236 22.68 120.49 21.44 122.09 20.56C123.69 19.6533 125.556 19.2 127.69 19.2C129.716 19.2 131.476 19.6267 132.97 20.48C134.463 21.3067 135.623 22.48 136.45 24C137.276 25.52 137.69 27.2933 137.69 29.32C137.69 29.6933 137.676 30.04 137.65 30.36C137.623 30.68 137.583 31 137.53 31.32H120.13V27.8H133.65L132.61 28.76C132.61 26.84 132.17 25.4 131.29 24.44C130.41 23.48 129.183 23 127.61 23C125.903 23 124.543 23.5867 123.53 24.76C122.543 25.9333 122.05 27.6267 122.05 29.84C122.05 32.0267 122.543 33.7067 123.53 34.88C124.543 36.0267 125.97 36.6 127.81 36.6C128.876 36.6 129.81 36.4 130.61 36C131.41 35.6 131.996 34.9867 132.37 34.16H137.13C136.463 36.08 135.33 37.6 133.73 38.72C132.156 39.84 130.17 40.4 127.77 40.4ZM150.192 40.4C147.685 40.4 145.832 39.8133 144.632 38.64C143.458 37.44 142.872 35.6533 142.872 33.28V14.96L147.952 13.08V33.4C147.952 34.3867 148.218 35.12 148.752 35.6C149.285 36.08 150.125 36.32 151.272 36.32C151.725 36.32 152.125 36.2933 152.472 36.24C152.845 36.16 153.192 36.0667 153.512 35.96V39.88C153.192 40.04 152.738 40.16 152.152 40.24C151.565 40.3467 150.912 40.4 150.192 40.4ZM138.952 23.56V19.6H153.512V23.56H138.952ZM165.497 40.4C163.443 40.4 161.63 39.9467 160.057 39.04C158.51 38.1333 157.283 36.88 156.377 35.28C155.497 33.6533 155.057 31.8133 155.057 29.76C155.057 27.7067 155.497 25.8933 156.377 24.32C157.283 22.72 158.51 21.4667 160.057 20.56C161.63 19.6533 163.443 19.2 165.497 19.2C167.177 19.2 168.697 19.52 170.057 20.16C171.417 20.7733 172.537 21.6533 173.417 22.8C174.297 23.92 174.857 25.2267 175.097 26.72H170.257C169.963 25.6267 169.403 24.7733 168.577 24.16C167.75 23.5467 166.75 23.24 165.577 23.24C164.483 23.24 163.537 23.5067 162.737 24.04C161.963 24.5733 161.363 25.3333 160.937 26.32C160.51 27.3067 160.297 28.4533 160.297 29.76C160.297 31.0933 160.51 32.2533 160.937 33.24C161.363 34.2267 161.977 35 162.777 35.56C163.577 36.0933 164.51 36.36 165.577 36.36C166.75 36.36 167.75 36.0533 168.577 35.44C169.403 34.8267 169.963 33.9733 170.257 32.88H175.097C174.857 34.3733 174.283 35.6933 173.377 36.84C172.497 37.96 171.377 38.84 170.017 39.48C168.683 40.0933 167.177 40.4 165.497 40.4ZM178.727 40V11.2H183.767V40H178.727ZM193.047 40V27.12C193.047 25.8667 192.727 24.92 192.087 24.28C191.447 23.64 190.514 23.32 189.287 23.32C188.22 23.32 187.26 23.56 186.407 24.04C185.58 24.52 184.927 25.1867 184.447 26.04C183.994 26.8933 183.767 27.88 183.767 29L183.247 24.12C183.94 22.6267 184.954 21.44 186.287 20.56C187.62 19.6533 189.22 19.2 191.087 19.2C193.3 19.2 195.02 19.8267 196.247 21.08C197.5 22.3333 198.127 24 198.127 26.08V40H193.047ZM198.352 46.12V42.28H216.992V46.12H198.352ZM219.464 40V11.2H227.544L236.344 38.96H233.504L242.304 11.2H250.424V40H245.304V12.92H246.144L237.584 40H232.024L223.544 13.16H224.344V40H219.464ZM264.762 40.4C262.602 40.4 260.709 39.9467 259.082 39.04C257.482 38.1333 256.229 36.88 255.322 35.28C254.442 33.68 254.002 31.84 254.002 29.76C254.002 27.68 254.442 25.8533 255.322 24.28C256.229 22.68 257.482 21.44 259.082 20.56C260.682 19.6533 262.549 19.2 264.682 19.2C266.709 19.2 268.469 19.6267 269.962 20.48C271.455 21.3067 272.615 22.48 273.442 24C274.269 25.52 274.682 27.2933 274.682 29.32C274.682 29.6933 274.669 30.04 274.642 30.36C274.615 30.68 274.575 31 274.522 31.32H257.122V27.8H270.642L269.602 28.76C269.602 26.84 269.162 25.4 268.282 24.44C267.402 23.48 266.175 23 264.602 23C262.895 23 261.535 23.5867 260.522 24.76C259.535 25.9333 259.042 27.6267 259.042 29.84C259.042 32.0267 259.535 33.7067 260.522 34.88C261.535 36.0267 262.962 36.6 264.802 36.6C265.869 36.6 266.802 36.4 267.602 36C268.402 35.6 268.989 34.9867 269.362 34.16H274.122C273.455 36.08 272.322 37.6 270.722 38.72C269.149 39.84 267.162 40.4 264.762 40.4ZM287.184 40.4C284.677 40.4 282.824 39.8133 281.624 38.64C280.45 37.44 279.864 35.6533 279.864 33.28V14.96L284.944 13.08V33.4C284.944 34.3867 285.21 35.12 285.744 35.6C286.277 36.08 287.117 36.32 288.264 36.32C288.717 36.32 289.117 36.2933 289.464 36.24C289.837 36.16 290.184 36.0667 290.504 35.96V39.88C290.184 40.04 289.73 40.16 289.144 40.24C288.557 40.3467 287.904 40.4 287.184 40.4ZM275.944 23.56V19.6H290.504V23.56H275.944ZM306.72 40C306.587 39.4667 306.48 38.88 306.4 38.24C306.347 37.6 306.32 36.8267 306.32 35.92H306.16V26.24C306.16 25.1733 305.854 24.3733 305.24 23.84C304.654 23.28 303.747 23 302.52 23C301.32 23 300.36 23.2267 299.64 23.68C298.947 24.1067 298.52 24.7333 298.36 25.56H293.52C293.734 23.6667 294.64 22.1333 296.24 20.96C297.84 19.7867 299.987 19.2 302.68 19.2C305.48 19.2 307.6 19.84 309.04 21.12C310.48 22.3733 311.2 24.2267 311.2 26.68V35.92C311.2 36.56 311.24 37.2133 311.32 37.88C311.427 38.5467 311.574 39.2533 311.76 40H306.72ZM299.64 40.4C297.587 40.4 295.947 39.8933 294.72 38.88C293.52 37.84 292.92 36.4533 292.92 34.72C292.92 32.8533 293.6 31.3733 294.96 30.28C296.32 29.1867 298.24 28.4533 300.72 28.08L307.08 27.12V30.32L301.56 31.16C300.36 31.3467 299.454 31.68 298.84 32.16C298.254 32.64 297.96 33.3067 297.96 34.16C297.96 34.9333 298.24 35.5333 298.8 35.96C299.36 36.36 300.134 36.56 301.12 36.56C302.56 36.56 303.76 36.2 304.72 35.48C305.68 34.76 306.16 33.88 306.16 32.84L306.72 35.92C306.187 37.3867 305.307 38.5067 304.08 39.28C302.88 40.0267 301.4 40.4 299.64 40.4ZM330.553 40V35.4L330.953 35.48C330.606 36.9733 329.766 38.1733 328.433 39.08C327.099 39.96 325.513 40.4 323.673 40.4C321.806 40.4 320.179 39.9733 318.793 39.12C317.433 38.24 316.379 37.0133 315.633 35.44C314.886 33.8667 314.513 32.0133 314.513 29.88C314.513 27.72 314.899 25.84 315.673 24.24C316.446 22.64 317.526 21.4 318.913 20.52C320.326 19.64 321.966 19.2 323.833 19.2C325.753 19.2 327.339 19.6667 328.593 20.6C329.846 21.5067 330.619 22.7733 330.913 24.4L330.393 24.44V11.2H335.473V40H330.553ZM325.153 36.28C326.779 36.28 328.073 35.72 329.033 34.6C330.019 33.4533 330.513 31.8533 330.513 29.8C330.513 27.7467 330.019 26.16 329.033 25.04C328.046 23.92 326.739 23.36 325.113 23.36C323.513 23.36 322.219 23.9333 321.233 25.08C320.246 26.2 319.753 27.7867 319.753 29.84C319.753 31.8933 320.246 33.48 321.233 34.6C322.219 35.72 323.526 36.28 325.153 36.28ZM353.556 40C353.423 39.4667 353.316 38.88 353.236 38.24C353.183 37.6 353.156 36.8267 353.156 35.92H352.996V26.24C352.996 25.1733 352.69 24.3733 352.076 23.84C351.49 23.28 350.583 23 349.356 23C348.156 23 347.196 23.2267 346.476 23.68C345.783 24.1067 345.356 24.7333 345.196 25.56H340.356C340.57 23.6667 341.476 22.1333 343.076 20.96C344.676 19.7867 346.823 19.2 349.516 19.2C352.316 19.2 354.436 19.84 355.876 21.12C357.316 22.3733 358.036 24.2267 358.036 26.68V35.92C358.036 36.56 358.076 37.2133 358.156 37.88C358.263 38.5467 358.41 39.2533 358.596 40H353.556ZM346.476 40.4C344.423 40.4 342.783 39.8933 341.556 38.88C340.356 37.84 339.756 36.4533 339.756 34.72C339.756 32.8533 340.436 31.3733 341.796 30.28C343.156 29.1867 345.076 28.4533 347.556 28.08L353.916 27.12V30.32L348.396 31.16C347.196 31.3467 346.29 31.68 345.676 32.16C345.09 32.64 344.796 33.3067 344.796 34.16C344.796 34.9333 345.076 35.5333 345.636 35.96C346.196 36.36 346.97 36.56 347.956 36.56C349.396 36.56 350.596 36.2 351.556 35.48C352.516 34.76 352.996 33.88 352.996 32.84L353.556 35.92C353.023 37.3867 352.143 38.5067 350.916 39.28C349.716 40.0267 348.236 40.4 346.476 40.4ZM371.207 40.4C368.701 40.4 366.847 39.8133 365.647 38.64C364.474 37.44 363.887 35.6533 363.887 33.28V14.96L368.967 13.08V33.4C368.967 34.3867 369.234 35.12 369.767 35.6C370.301 36.08 371.141 36.32 372.287 36.32C372.741 36.32 373.141 36.2933 373.487 36.24C373.861 36.16 374.207 36.0667 374.527 35.96V39.88C374.207 40.04 373.754 40.16 373.167 40.24C372.581 40.3467 371.927 40.4 371.207 40.4ZM359.967 23.56V19.6H374.527V23.56H359.967ZM390.744 40C390.61 39.4667 390.504 38.88 390.424 38.24C390.37 37.6 390.344 36.8267 390.344 35.92H390.184V26.24C390.184 25.1733 389.877 24.3733 389.264 23.84C388.677 23.28 387.77 23 386.544 23C385.344 23 384.384 23.2267 383.664 23.68C382.97 24.1067 382.544 24.7333 382.384 25.56H377.544C377.757 23.6667 378.664 22.1333 380.264 20.96C381.864 19.7867 384.01 19.2 386.704 19.2C389.504 19.2 391.624 19.84 393.064 21.12C394.504 22.3733 395.224 24.2267 395.224 26.68V35.92C395.224 36.56 395.264 37.2133 395.344 37.88C395.45 38.5467 395.597 39.2533 395.784 40H390.744ZM383.664 40.4C381.61 40.4 379.97 39.8933 378.744 38.88C377.544 37.84 376.944 36.4533 376.944 34.72C376.944 32.8533 377.624 31.3733 378.984 30.28C380.344 29.1867 382.264 28.4533 384.744 28.08L391.104 27.12V30.32L385.584 31.16C384.384 31.3467 383.477 31.68 382.864 32.16C382.277 32.64 381.984 33.3067 381.984 34.16C381.984 34.9333 382.264 35.5333 382.824 35.96C383.384 36.36 384.157 36.56 385.144 36.56C386.584 36.56 387.784 36.2 388.744 35.48C389.704 34.76 390.184 33.88 390.184 32.84L390.744 35.92C390.21 37.3867 389.33 38.5067 388.104 39.28C386.904 40.0267 385.424 40.4 383.664 40.4Z" fill="black"/>
</svg>
