<svg width="379" height="114" viewBox="0 0 379 114" fill="none" xmlns="http://www.w3.org/2000/svg">
<path fill-rule="evenodd" clip-rule="evenodd" d="M45 90C20.1459 90 0 69.8541 0 45C0 20.1459 20.1459 0 45 0C69.8541 0 90 20.1459 90 45C90 69.8541 69.8541 90 45 90ZM51.3028 74.5588H56.0869C55.6653 74.6606 56.5205 74.5673 56.0869 74.5588C55.5919 76.8819 58.5506 73.9822 56.0869 74.5588L78.034 14.4414L70.705 8.05868L56.0869 48.1219L38.7056 23.9428L38.6944 23.9541L38.7028 23.9259L35.8312 23.9062V23.9091C35.3969 23.9024 34.9634 23.9486 34.5403 24.0469C32.0794 24.6263 29.9953 26.7778 29.4975 29.0981L11.0678 74.5588L17.3866 80.5351L33.9131 41.8753L51.3028 74.5588ZM35.6287 35.4544L36.9872 30.3637L54.3713 54.5484L53.0128 59.6391L35.6316 35.4516L35.6287 35.4544Z" fill="#360E01"/>
<path d="M131.335 39.2886L151.649 14.8112H141.815L122.722 37.3505V14.8112H114.467V65.058H122.722V41.1549L142.533 65.058H152.367L131.335 39.2886ZM195.434 58.4542C200.53 53.3577 203.043 47.1845 203.043 39.9346C203.043 32.6847 200.53 26.5115 195.434 21.4868C190.409 16.3904 184.236 13.878 176.986 13.878C169.736 13.878 163.563 16.3904 158.466 21.4868C153.442 26.5115 150.929 32.6847 150.929 39.9346C150.929 47.1845 153.442 53.3577 158.466 58.4542C163.563 63.4789 169.736 65.9912 176.986 65.9912C184.236 65.9912 190.409 63.4789 195.434 58.4542ZM164.281 52.8552C160.907 49.4097 159.184 45.1029 159.184 39.9346C159.184 34.7664 160.907 30.4595 164.281 27.0858C167.726 23.6403 171.961 21.9175 176.986 21.9175C182.011 21.9175 186.246 23.6403 189.62 27.0858C193.065 30.4595 194.788 34.7664 194.788 39.9346C194.788 45.1029 193.065 49.4097 189.62 52.8552C186.246 56.229 182.011 57.9517 176.986 57.9517C171.961 57.9517 167.726 56.229 164.281 52.8552ZM240.72 48.9073L217.033 14.8112H210.572V65.058H218.827V30.962L242.515 65.058H248.975V14.8112H240.72V48.9073ZM300.644 65.058L282.483 14.8112H272.577L254.345 65.058H263.318L266.835 54.9369H288.226L291.743 65.058H300.644ZM277.53 24.5017L285.498 47.1845H269.562L277.53 24.5017Z" fill="black"/>
</svg>
